# xmcd
# Track frame offsets:
# 150
# 23770
# 42204
# 61509
# 75457
# 112388
# 126208
# 153219
# 186149
# 208142
# 237624
# 261101
# 288565
#
# Disc length: 4076 seconds
# Revision: 0
# Processed by: cddbd v1.5.2PL0 Copyright (c) Steve Scherf et al.
# Submitted via: VisiTrax 2.10.3.257 - For more info visit www.synapsa.com
#
DISCID=b50fea0d
DTITLE=Popa Chubby - Deliveries After Dark...
DYEAR=2007
DGENRE=Blues
TTITLE0=Let The Music Set You Free
TTITLE1=Sally Likes To Run
TTITLE2=Deliveries After Dark
TTITLE3=Theme From The Godfather
TTITLE4=Grown Man Crying Blues
TTITLE5=You Can't Stop Love
TTITLE6=I'll Piss On Your Grave
TTITLE7=Man Of The Blues
TTITLE8=Money Isn't Everything (It's The Only Thing)
TTITLE9=2nd Avenue Shuffle
TTITLE10=You Never Loved Me
TTITLE11=Woman In My Bed Dub
TTITLE12=Oh Rock And Roll You Heartless Bitch
EXTD=2007 by Columbia No1
EXTT0=
EXTT1=
EXTT2=
EXTT3=
EXTT4=
EXTT5=
EXTT6=
EXTT7=
EXTT8=
EXTT9=
EXTT10=
EXTT11=
EXTT12=
PLAYORDER=
